<svg width="1396" height="300" viewBox="0 0 1396 300" fill="none" xmlns="http://www.w3.org/2000/svg">
<path fill-rule="evenodd" clip-rule="evenodd" d="M300 0H0V300H55.0642C63.901 274.051 89.2803 257.236 89.2803 257.236C93.7696 253.859 98.7772 248.494 103.256 243.146C110.872 234.053 116.416 225.814 116.416 225.814C120.068 213.689 118.949 166.221 113.891 151.924C109.806 140.212 110.872 118.464 110.872 118.464C111.978 108.493 115.033 99.7766 118.643 95.229C122.871 89.9018 128.053 88.9087 133.195 87.9233C134.208 87.7291 135.219 87.5353 136.222 87.3087C144.893 85.348 152.376 84.458 152.376 84.458C153.822 84.2513 155.146 84.0775 156.547 83.8937C158.366 83.6551 160.314 83.3994 162.828 83.0327L163.16 82.984L163.417 82.946C166.874 82.4355 170.222 81.941 172.846 83.5078C182.789 89.4463 175.405 98.9956 170.687 99.078C168.993 99.1076 167.249 97.9503 165.327 96.6752C163.005 95.1353 160.425 93.4237 157.363 93.4237C152.889 93.4237 148.901 95.2815 146.275 98.5933C143.163 102.551 142.676 108.044 144.816 113.617C144.329 115.637 143.357 117.818 142.384 118.545C136.938 122.422 135.187 128.722 138.105 134.215C142.19 141.97 150.846 155.055 165.824 160.144C167.77 188.173 188.584 229.368 226.321 258.851C243.835 272.501 248.473 286.929 248.211 300H300V0ZM141.143 95.229C141.143 87.2129 130.337 87.2129 130.337 95.229C130.337 103.248 141.143 103.245 141.143 95.229ZM207.876 162.179C207.876 162.179 213.944 157.453 210.544 152.414C210.544 152.414 182.395 128.035 182.219 116.865C182.219 116.865 182.491 93.8572 179.402 91.6001C179.402 91.6001 179.256 95.0976 178.252 98.6524C176.865 103.56 171.094 105.695 166.703 103.101C164.091 101.559 161.046 99.631 158.907 97.8792C154.245 94.0598 149.61 100.947 154.05 110.325C154.05 110.325 153.791 120.067 148.516 124.969C146.4 126.936 145.837 130.072 147.076 132.682C150.985 140.917 159.848 155.865 173.807 159.07C173.807 159.07 201.72 170.562 207.876 162.179ZM176.559 63.2233L172.111 50.5579C170.767 46.6788 168.415 43.165 165.239 40.2936C162.064 37.4221 158.152 35.2715 153.812 34.0113C159.349 43.7436 163.343 54.15 165.685 64.9455L176.559 63.2233ZM109.072 48.7693C111.205 45.0566 114.261 41.802 117.999 39.2621C115.743 50.2296 115.16 61.3611 116.265 72.3528L105.391 74.0751L105.708 60.6563C105.787 56.5513 106.939 52.482 109.072 48.7693ZM184.293 65.3703L98.6419 78.9361C97.7659 79.0749 97.2285 80.2779 97.4416 81.6233L98.2132 86.4951C98.4263 87.8404 99.3091 88.8185 100.185 88.6797L185.836 75.114C186.712 74.9752 187.25 73.7721 187.036 72.4268L186.265 67.555C186.052 66.2097 185.169 65.2316 184.293 65.3703ZM145.166 28.6519C144.585 27.6911 143.724 26.9259 142.694 26.4556C141.664 25.9853 140.513 25.8316 139.39 26.0145L129.141 27.6378C128.009 27.8141 126.955 28.3233 126.119 29.0986C125.282 29.8738 124.702 30.879 124.454 31.9821C124.456 31.9946 124.419 32.1426 124.415 32.156C121.848 45.0514 121.249 58.2431 122.638 71.2943L159.066 65.5246C156.367 52.7109 145.332 28.9282 145.332 28.9282L145.291 28.8612C145.228 28.7611 145.195 28.7087 145.166 28.6519ZM140.756 61.0341C140.673 61.0628 140.586 61.08 140.495 61.0875C140.025 61.1216 139.592 60.8358 139.439 60.3914L136.823 52.7939L132.317 54.3452C131.966 54.4661 131.574 54.3891 131.295 54.1416C131.015 53.8947 130.889 53.5179 130.965 53.1516L134.056 38.4165C134.151 37.9599 134.539 37.6233 135.006 37.5941C135.471 37.5655 135.898 37.8514 136.05 38.2924L138.678 45.9226L142.814 44.4985C143.163 44.3781 143.551 44.453 143.829 44.6933C144.108 44.9354 144.239 45.3067 144.171 45.6701L141.438 60.2439C141.367 60.6172 141.103 60.9148 140.756 61.0341Z" fill="currentColor"/>
<path d="M415.4 218.6C404.6 218.6 394.867 216.133 386.2 211.2C377.667 206.267 370.933 198.8 366 188.8C361.067 178.8 358.6 166.267 358.6 151.2C358.6 140.267 360 130.533 362.8 122C365.6 113.333 369.733 106 375.2 100C380.667 93.8667 387.333 89.2667 395.2 86.2C403.067 83 412.2 81.4 422.6 81.4C430.467 81.4 437.533 82.3333 443.8 84.2C450.2 85.9333 455.733 88.5333 460.4 92C465.067 95.4667 468.733 99.6667 471.4 104.6C474.067 109.533 475.6 115.133 476 121.4L452 128.6C451.733 122.6 450.133 117.667 447.2 113.8C444.4 109.933 440.733 107.067 436.2 105.2C431.8 103.333 427 102.4 421.8 102.4C414.2 102.4 407.667 104.067 402.2 107.4C396.733 110.733 392.533 115.933 389.6 123C386.667 130.067 385.2 139.133 385.2 150.2C385.2 158.6 386.067 165.867 387.8 172C389.533 178 392 182.933 395.2 186.8C398.4 190.533 402.267 193.333 406.8 195.2C411.333 196.933 416.333 197.8 421.8 197.8C428.067 197.8 433.467 196.733 438 194.6C442.667 192.467 446.333 189.133 449 184.6C451.8 180.067 453.467 174.333 454 167.4H427.2V148.6H479V171.4V216H460.6L462.2 181.4H458.8C456.8 189.667 454 196.6 450.4 202.2C446.8 207.667 442.133 211.8 436.4 214.6C430.667 217.267 423.667 218.6 415.4 218.6ZM553.983 218.6C544.383 218.6 535.849 217.067 528.383 214C520.916 210.933 514.516 206.533 509.183 200.8C503.983 194.933 499.983 187.8 497.183 179.4C494.383 171 492.983 161.4 492.983 150.6C492.983 135 495.649 122.133 500.983 112C506.316 101.733 513.649 94.0667 522.983 89C532.316 83.9333 542.916 81.4 554.783 81.4C563.983 81.4 572.316 82.9333 579.783 86C587.249 88.9333 593.583 93.3333 598.783 99.2C604.116 104.933 608.249 112.133 611.183 120.8C614.116 129.333 615.583 139.133 615.583 150.2C615.583 161.267 614.116 171.067 611.183 179.6C608.383 188 604.316 195.133 598.983 201C593.649 206.733 587.183 211.133 579.583 214.2C572.116 217.133 563.583 218.6 553.983 218.6ZM554.583 198.2C562.183 198.2 568.516 196.4 573.583 192.8C578.783 189.067 582.716 183.733 585.383 176.8C588.183 169.867 589.583 161.4 589.583 151.4C589.583 141.133 588.183 132.333 585.383 125C582.583 117.667 578.516 112.133 573.183 108.4C567.983 104.533 561.583 102.6 553.983 102.6C546.783 102.6 540.516 104.467 535.183 108.2C529.983 111.8 525.983 117.2 523.183 124.4C520.383 131.467 518.983 140.133 518.983 150.4C518.983 158.133 519.783 165 521.383 171C522.983 176.867 525.249 181.8 528.183 185.8C531.249 189.8 534.983 192.867 539.383 195C543.916 197.133 548.983 198.2 554.583 198.2ZM661.655 216L617.455 84H645.055L678.455 194.4H680.855L714.455 84H741.655L697.255 216H661.655ZM800.384 218.6C789.584 218.6 779.851 216.133 771.184 211.2C762.651 206.267 755.918 198.8 750.984 188.8C746.051 178.8 743.584 166.267 743.584 151.2C743.584 140.267 744.984 130.533 747.784 122C750.584 113.333 754.718 106 760.184 100C765.651 93.8667 772.318 89.2667 780.184 86.2C788.051 83 797.184 81.4 807.584 81.4C815.451 81.4 822.518 82.3333 828.784 84.2C835.184 85.9333 840.718 88.5333 845.384 92C850.051 95.4667 853.718 99.6667 856.384 104.6C859.051 109.533 860.584 115.133 860.984 121.4L836.984 128.6C836.718 122.6 835.118 117.667 832.184 113.8C829.384 109.933 825.718 107.067 821.184 105.2C816.784 103.333 811.984 102.4 806.784 102.4C799.184 102.4 792.651 104.067 787.184 107.4C781.718 110.733 777.518 115.933 774.584 123C771.651 130.067 770.184 139.133 770.184 150.2C770.184 158.6 771.051 165.867 772.784 172C774.518 178 776.984 182.933 780.184 186.8C783.384 190.533 787.251 193.333 791.784 195.2C796.318 196.933 801.318 197.8 806.784 197.8C813.051 197.8 818.451 196.733 822.984 194.6C827.651 192.467 831.318 189.133 833.984 184.6C836.784 180.067 838.451 174.333 838.984 167.4H812.184V148.6H863.984V171.4V216H845.584L847.184 181.4H843.784C841.784 189.667 838.984 196.6 835.384 202.2C831.784 207.667 827.118 211.8 821.384 214.6C815.651 217.267 808.651 218.6 800.384 218.6ZM938.967 218.6C929.367 218.6 920.834 217.067 913.367 214C905.901 210.933 899.501 206.533 894.167 200.8C888.967 194.933 884.967 187.8 882.167 179.4C879.367 171 877.967 161.4 877.967 150.6C877.967 135 880.634 122.133 885.967 112C891.301 101.733 898.634 94.0667 907.967 89C917.301 83.9333 927.901 81.4 939.767 81.4C948.967 81.4 957.301 82.9333 964.767 86C972.234 88.9333 978.567 93.3333 983.767 99.2C989.101 104.933 993.234 112.133 996.167 120.8C999.101 129.333 1000.57 139.133 1000.57 150.2C1000.57 161.267 999.101 171.067 996.167 179.6C993.367 188 989.301 195.133 983.967 201C978.634 206.733 972.167 211.133 964.567 214.2C957.101 217.133 948.567 218.6 938.967 218.6ZM939.567 198.2C947.167 198.2 953.501 196.4 958.567 192.8C963.767 189.067 967.701 183.733 970.367 176.8C973.167 169.867 974.567 161.4 974.567 151.4C974.567 141.133 973.167 132.333 970.367 125C967.567 117.667 963.501 112.133 958.167 108.4C952.967 104.533 946.567 102.6 938.967 102.6C931.767 102.6 925.501 104.467 920.167 108.2C914.967 111.8 910.967 117.2 908.167 124.4C905.367 131.467 903.967 140.133 903.967 150.4C903.967 158.133 904.767 165 906.367 171C907.967 176.867 910.234 181.8 913.167 185.8C916.234 189.8 919.967 192.867 924.367 195C928.901 197.133 933.967 198.2 939.567 198.2ZM1074.91 218.6C1065.31 218.6 1056.78 217.067 1049.31 214C1041.85 210.933 1035.45 206.533 1030.11 200.8C1024.91 194.933 1020.91 187.8 1018.11 179.4C1015.31 171 1013.91 161.4 1013.91 150.6C1013.91 135 1016.58 122.133 1021.91 112C1027.25 101.733 1034.58 94.0667 1043.91 89C1053.25 83.9333 1063.85 81.4 1075.71 81.4C1084.91 81.4 1093.25 82.9333 1100.71 86C1108.18 88.9333 1114.51 93.3333 1119.71 99.2C1125.05 104.933 1129.18 112.133 1132.11 120.8C1135.05 129.333 1136.51 139.133 1136.51 150.2C1136.51 161.267 1135.05 171.067 1132.11 179.6C1129.31 188 1125.25 195.133 1119.91 201C1114.58 206.733 1108.11 211.133 1100.51 214.2C1093.05 217.133 1084.51 218.6 1074.91 218.6ZM1075.51 198.2C1083.11 198.2 1089.45 196.4 1094.51 192.8C1099.71 189.067 1103.65 183.733 1106.31 176.8C1109.11 169.867 1110.51 161.4 1110.51 151.4C1110.51 141.133 1109.11 132.333 1106.31 125C1103.51 117.667 1099.45 112.133 1094.11 108.4C1088.91 104.533 1082.51 102.6 1074.91 102.6C1067.71 102.6 1061.45 104.467 1056.11 108.2C1050.91 111.8 1046.91 117.2 1044.11 124.4C1041.31 131.467 1039.91 140.133 1039.91 150.4C1039.91 158.133 1040.71 165 1042.31 171C1043.91 176.867 1046.18 181.8 1049.11 185.8C1052.18 189.8 1055.91 192.867 1060.31 195C1064.85 197.133 1069.91 198.2 1075.51 198.2ZM1203.86 218.6C1195.2 218.6 1187.46 217.733 1180.66 216C1173.86 214.4 1168.06 211.867 1163.26 208.4C1158.6 204.8 1155 200.467 1152.46 195.4C1149.93 190.2 1148.6 184.133 1148.46 177.2L1170.86 170.6C1170.73 177 1172.06 182.333 1174.86 186.6C1177.66 190.733 1181.66 193.8 1186.86 195.8C1192.2 197.8 1198.26 198.8 1205.06 198.8C1211.6 198.8 1217.06 198 1221.46 196.4C1226 194.8 1229.4 192.667 1231.66 190C1233.93 187.2 1235.06 184.067 1235.06 180.6C1235.06 176.733 1233.66 173.667 1230.86 171.4C1228.06 169 1224.26 167.067 1219.46 165.6C1214.8 164 1209.46 162.533 1203.46 161.2C1196.93 159.733 1190.53 158.133 1184.26 156.4C1178.13 154.667 1172.53 152.333 1167.46 149.4C1162.4 146.467 1158.33 142.733 1155.26 138.2C1152.33 133.533 1150.86 127.667 1150.86 120.6C1150.86 112.6 1152.86 105.733 1156.86 100C1160.86 94.1333 1166.66 89.6 1174.26 86.4C1182 83.0667 1191.2 81.4 1201.86 81.4C1212.4 81.4 1221.6 83 1229.46 86.2C1237.33 89.2667 1243.46 93.8 1247.86 99.8C1252.26 105.8 1254.6 112.867 1254.86 121L1231.86 127.4C1231.86 123 1231.13 119.2 1229.66 116C1228.33 112.667 1226.33 109.933 1223.66 107.8C1221 105.533 1217.8 103.867 1214.06 102.8C1210.46 101.733 1206.33 101.2 1201.66 101.2C1196.2 101.2 1191.4 101.933 1187.26 103.4C1183.26 104.867 1180.2 106.933 1178.06 109.6C1175.93 112.133 1174.86 115.133 1174.86 118.6C1174.86 122.867 1176.46 126.267 1179.66 128.8C1182.86 131.333 1187.06 133.4 1192.26 135C1197.6 136.467 1203.4 137.933 1209.66 139.4C1215.4 140.6 1221.13 142.067 1226.86 143.8C1232.73 145.533 1238.13 147.8 1243.06 150.6C1248 153.4 1251.93 157.2 1254.86 162C1257.93 166.667 1259.46 172.6 1259.46 179.8C1259.46 187.533 1257.4 194.333 1253.26 200.2C1249.13 206.067 1242.93 210.6 1234.66 213.8C1226.4 217 1216.13 218.6 1203.86 218.6ZM1276.15 216V84H1301.55V216H1276.15ZM1292.55 216V195.2H1374.75V216H1292.55ZM1292.55 158.6V139.4H1364.95V158.6H1292.55ZM1292.55 104.8V84H1374.35V104.8H1292.55Z" fill="currentColor"/>
</svg>
